<?xml version="1.0" standalone="no"?>
<!DOCTYPE svg PUBLIC "-//W3C//DTD SVG 20010904//EN"
 "http://www.w3.org/TR/2001/REC-SVG-20010904/DTD/svg10.dtd">
<svg version="1.0" xmlns="http://www.w3.org/2000/svg"
 width="1024.000000pt" height="1024.000000pt" viewBox="0 0 1024.000000 1024.000000"
 preserveAspectRatio="xMidYMid meet">

<g transform="translate(0.000000,1024.000000) scale(0.100000,-0.100000)"
fill="#000000" stroke="none">
<path d="M4322 9591 c-85 -29 -150 -104 -166 -191 -6 -34 -8 -36 -114 -72
-549 -186 -870 -470 -1026 -906 -55 -154 -86 -390 -86 -656 l0 -132 -36 -35
c-97 -93 -264 -310 -349 -452 -335 -569 -464 -1267 -354 -1921 96 -573 357
-1085 768 -1510 506 -521 1172 -846 1860 -907 170 -15 517 -7 671 16 631 91
1280 427 1719 891 425 450 699 1014 776 1598 87 669 -76 1370 -448 1931 -128
192 -315 405 -466 530 l-60 50 79 17 c137 29 212 74 250 149 44 85 16 175 -84
274 -141 140 -372 223 -779 278 l-159 22 -41 105 c-187 469 -555 740 -1087
801 -101 11 -354 8 -495 -7 l-60 -6 -19 36 c-24 46 -75 85 -134 102 -60 18
-96 17 -160 -5z m1001 -281 c242 -51 436 -156 590 -319 104 -110 164 -209 226
-367 l20 -51 -147 -7 c-318 -14 -523 -40 -812 -102 -357 -77 -774 -214 -1176
-387 l-81 -35 -19 151 c-26 216 -25 435 4 549 45 181 141 337 278 455 48 40
67 49 150 69 234 57 399 74 664 69 159 -3 227 -8 303 -25z m-1349 -212 c-66
-88 -126 -207 -155 -308 -31 -110 -37 -360 -14 -611 14 -161 15 -193 4 -200
-34 -21 -228 -92 -384 -139 -93 -28 -210 -66 -260 -84 l-90 -33 -3 111 c-15
553 212 972 648 1197 34 17 296 135 307 138 1 1 -23 -32 -53 -71z m2468 -684
c107 -13 375 -66 403 -79 6 -3 -44 -2 -110 1 -142 6 -423 -9 -550 -31 -160
-27 -303 -80 -569 -213 -410 -203 -540 -254 -753 -294 -157 -29 -522 -31 -648
-4 -87 19 -255 72 -268 85 -5 5 54 35 130 69 561 245 1151 410 1668 467 174
19 545 19 697 -1z m-179 -353 c43 -11 126 -41 185 -66 107 -46 274 -142 276
-159 2 -14 -165 -110 -279 -160 -159 -69 -342 -130 -595 -196 -620 -163 -990
-206 -1300 -151 -152 27 -295 25 -465 -4 -49 -9 -149 -19 -221 -22 -149 -7
-221 5 -386 64 -164 58 -228 74 -362 88 -71 8 -131 17 -135 21 -10 10 80 84
129 106 70 31 384 136 490 163 140 37 189 34 372 -24 251 -80 288 -86 558 -86
179 0 256 4 325 17 205 39 381 103 705 258 240 114 316 146 405 164 80 17 202
12 298 -13z m638 -351 c52 -34 246 -215 239 -223 -13 -12 -508 -208 -701 -277
-801 -288 -1365 -415 -2109 -476 -252 -20 -760 -24 -945 -6 -222 22 -616 75
-792 108 l-32 6 35 70 c45 89 161 285 174 293 5 3 76 -10 157 -29 169 -40 313
-61 528 -76 218 -16 401 -37 555 -65 231 -41 306 -48 460 -42 118 5 171 12
285 41 172 42 307 69 490 96 282 42 687 159 962 276 161 69 364 174 498 257
66 42 127 76 136 76 8 1 36 -12 60 -29z m449 -475 c62 -81 175 -259 182 -284
4 -15 -160 -133 -271 -196 -54 -30 -142 -73 -197 -97 -111 -47 -114 -49 -97
-55 39 -14 193 -265 193 -315 1 -42 17 -40 141 22 161 81 197 106 301 208 l86
85 35 -109 c19 -60 47 -163 63 -228 l28 -120 -86 -82 c-93 -88 -204 -166 -335
-236 l-82 -44 32 -12 c58 -21 133 -97 171 -174 20 -39 36 -85 36 -102 1 -30 3
-29 81 54 44 47 110 124 147 173 l67 87 3 -142 c2 -79 -2 -188 -8 -243 l-10
-100 -58 -58 c-203 -208 -482 -372 -935 -551 -220 -87 -1039 -368 -1157 -397
-80 -20 -120 -23 -260 -23 -173 0 -179 1 -450 64 -91 21 -208 44 -260 51 -193
24 -425 -11 -620 -93 -181 -77 -214 -85 -362 -94 -237 -15 -579 52 -972 188
l-149 52 -57 120 c-58 121 -145 345 -137 353 2 2 24 -1 48 -7 24 -6 168 -15
319 -20 282 -8 316 -13 441 -59 30 -12 77 -35 103 -51 142 -90 319 -161 501
-200 121 -26 445 -36 730 -23 241 12 368 3 545 -38 135 -31 158 -33 320 -33
204 -1 303 14 622 94 418 104 650 200 1021 422 l119 71 -69 22 c-37 12 -77 26
-88 32 -17 9 -56 -1 -210 -53 -312 -107 -591 -166 -1085 -228 -596 -76 -1142
-87 -1468 -30 -83 14 -84 14 -155 -13 -62 -23 -87 -27 -177 -27 -85 0 -116 4
-161 22 -118 47 -193 117 -230 215 -15 40 -19 43 -95 69 -164 55 -219 62 -494
63 -167 0 -276 5 -315 13 -97 21 -209 61 -257 91 -56 35 -55 33 -64 294 l-7
198 64 -5 c35 -3 110 -8 166 -11 131 -7 207 -21 483 -89 368 -89 575 -115 778
-96 64 6 117 12 119 14 2 1 -8 30 -22 64 -34 84 -47 142 -54 252 l-6 94 -135
34 c-115 30 -153 35 -260 36 -111 0 -136 -3 -225 -29 -89 -27 -114 -30 -230
-29 -72 0 -150 6 -175 13 -25 6 -107 42 -182 78 -99 47 -157 68 -208 76 l-70
11 6 36 c4 19 19 85 33 145 l27 110 119 -1 c108 -1 129 -5 210 -33 273 -98
259 -94 405 -95 l135 -1 160 55 160 55 150 -1 c94 0 174 -6 215 -15 l65 -15
71 38 c145 78 278 93 542 62 272 -32 546 2 882 110 544 175 1174 447 1575 680
l130 75 23 -27 c13 -15 54 -67 92 -117z m345 -2451 c-42 -113 -173 -388 -201
-421 -40 -47 -394 -220 -610 -298 -326 -118 -599 -176 -971 -205 -210 -17
-311 -50 -478 -158 -426 -276 -877 -349 -1511 -247 -152 25 -392 82 -537 128
-64 21 -91 37 -160 95 -102 88 -276 262 -260 262 6 0 53 -11 105 -24 175 -46
325 -69 463 -69 156 -1 223 14 345 77 366 187 418 208 609 241 157 28 283 18
626 -46 283 -53 594 -52 900 2 607 108 1272 394 1640 707 39 33 71 58 73 57 2
-2 -13 -47 -33 -101z m-665 -1027 c-209 -203 -442 -367 -711 -501 -583 -291
-1155 -369 -1795 -245 -137 26 -319 79 -447 130 -110 44 -155 71 -66 40 109
-38 244 -55 434 -55 153 0 228 7 500 42 450 60 507 75 778 203 220 105 329
139 579 183 113 20 237 46 275 57 143 44 433 171 509 223 21 14 41 26 44 26 3
-1 -42 -47 -100 -103z"/>
<path d="M6483 6601 c-70 -26 -129 -68 -191 -135 -41 -46 -59 -57 -99 -66 -26
-6 -155 -38 -287 -71 -131 -32 -298 -70 -370 -84 -141 -26 -596 -89 -600 -83
-1 1 -17 27 -35 55 -43 69 -129 147 -202 184 -154 77 -308 78 -467 2 -74 -36
-188 -149 -230 -229 -114 -218 -69 -497 108 -675 203 -205 510 -210 721 -11
112 105 169 240 169 398 l0 82 43 -11 c23 -6 123 -11 222 -11 243 -1 262 3
655 147 52 19 125 41 163 50 l67 15 0 -81 c0 -161 50 -287 155 -393 73 -74
164 -121 264 -137 233 -36 469 137 520 381 16 75 13 215 -4 291 -36 153 -152
303 -282 363 -60 29 -79 33 -168 35 -78 2 -111 -2 -152 -16z m354 -221 c53
-32 69 -69 65 -154 -3 -40 -66 -101 -115 -110 -51 -9 -120 21 -147 66 -40 67
-20 155 46 199 38 25 109 25 151 -1z m-2106 -153 c117 -78 70 -259 -72 -274
-154 -16 -220 196 -87 277 46 28 115 26 159 -3z"/>
<path d="M7092 5700 c-56 -25 -166 -131 -192 -185 -25 -52 -26 -136 -1 -190
64 -141 262 -200 417 -125 63 31 131 110 150 177 59 204 -180 411 -374 323z"/>
<path d="M5972 5584 c-12 -8 -33 -36 -46 -62 -109 -212 -403 -229 -541 -32
-49 70 -107 87 -149 44 -31 -30 -31 -64 -1 -121 36 -70 112 -138 203 -181 63
-30 87 -36 165 -40 52 -2 117 1 148 7 166 35 313 167 344 308 6 28 2 37 -23
63 -34 33 -66 38 -100 14z"/>
<path d="M3817 5416 c-104 -44 -167 -107 -193 -192 -28 -94 -8 -175 62 -253
114 -126 316 -148 460 -50 95 65 140 150 131 247 -9 101 -61 170 -177 231 -55
30 -77 35 -145 38 -67 3 -89 0 -138 -21z"/>
<path d="M4520 3976 c-126 -33 -209 -88 -231 -153 -26 -79 27 -149 144 -190
41 -14 83 -18 202 -18 168 0 232 14 314 69 61 42 84 76 84 126 0 69 -57 125
-157 156 -71 22 -284 28 -356 10z"/>
<path d="M7700 2654 c-45 -20 -68 -41 -91 -86 -71 -138 60 -299 210 -258 53
14 116 70 132 117 49 148 -107 290 -251 227z"/>
<path d="M6482 2640 c-12 -5 -27 -21 -32 -35 -6 -17 -10 -298 -10 -746 0 -801
-2 -772 65 -785 18 -3 75 -4 125 -3 135 6 130 -5 130 276 l0 225 131 -173 c72
-96 156 -206 186 -245 29 -40 62 -74 71 -76 9 -2 80 -1 156 2 150 5 166 12
152 61 -3 13 -94 134 -201 268 l-195 243 23 28 c12 15 88 101 169 191 227 254
229 258 187 300 -20 20 -30 21 -158 17 -101 -2 -143 -7 -155 -17 -10 -8 -95
-104 -189 -214 l-172 -199 -5 432 c-5 413 -6 432 -24 446 -23 16 -215 19 -254
4z"/>
<path d="M2059 2581 l-24 -19 -5 -529 c-4 -403 -8 -535 -18 -558 -35 -80 -97
-128 -182 -139 -35 -5 -61 0 -115 20 -111 41 -126 41 -170 2 -52 -45 -95 -106
-95 -134 0 -91 255 -197 433 -179 189 18 343 111 419 251 61 112 62 118 66
712 3 483 1 546 -13 568 -15 23 -19 24 -144 24 -112 0 -132 -3 -152 -19z"/>
<path d="M8277 2452 c-13 -14 -17 -38 -17 -94 0 -41 -3 -96 -6 -122 l-7 -46
-83 0 c-116 0 -124 -9 -124 -132 0 -51 4 -98 8 -104 16 -25 56 -36 121 -32
l66 3 6 -290 c5 -245 9 -298 24 -340 38 -104 96 -168 189 -211 118 -54 341
-41 382 21 15 22 15 34 4 106 -7 44 -19 87 -27 95 -10 9 -37 14 -86 14 -82 0
-126 20 -151 67 -22 43 -28 531 -6 538 8 2 64 3 124 2 136 -2 136 -2 136 133
0 130 0 130 -158 130 l-122 0 0 120 c0 160 0 160 -148 160 -93 0 -111 -3 -125
-18z"/>
<path d="M4415 2209 c-85 -12 -175 -59 -229 -120 l-46 -51 0 55 c0 49 -3 58
-27 77 -25 20 -38 21 -131 18 -156 -5 -142 52 -142 -560 l0 -509 25 -24 c23
-24 30 -25 138 -25 98 0 118 3 138 19 l24 19 5 334 c6 371 4 363 78 430 63 57
176 71 253 32 37 -19 76 -68 89 -112 6 -22 10 -165 10 -349 l0 -312 24 -28
c23 -26 30 -28 115 -32 105 -4 134 2 161 29 19 19 20 35 20 358 0 366 -7 430
-55 528 -57 116 -174 202 -305 223 -36 6 -69 10 -75 10 -5 -1 -37 -5 -70 -10z"/>
<path d="M5550 2203 c-138 -23 -289 -115 -373 -226 -54 -71 -75 -116 -98 -204
-51 -202 5 -407 151 -553 258 -258 753 -218 954 78 160 234 132 539 -68 738
-119 119 -264 175 -446 172 -52 0 -106 -3 -120 -5z m257 -307 c61 -31 96 -67
125 -131 19 -41 23 -67 23 -140 -1 -78 -5 -97 -28 -141 -54 -105 -155 -160
-276 -152 -78 6 -131 31 -182 85 -64 66 -74 96 -74 208 0 86 3 106 24 145 41
79 103 129 186 151 52 14 150 2 202 -25z"/>
<path d="M2594 2167 l-29 -25 0 -364 c1 -320 3 -370 19 -423 52 -173 164 -275
337 -306 135 -24 281 21 364 113 l43 47 4 -51 c8 -79 25 -88 159 -88 165 0
149 -61 149 558 0 515 0 519 -21 538 -18 16 -37 19 -140 19 -100 0 -121 -3
-136 -18 -16 -16 -18 -49 -23 -356 l-5 -338 -30 -49 c-42 -68 -99 -98 -185
-98 -85 -1 -144 30 -180 94 l-25 45 -5 337 c-6 412 6 381 -159 386 -103 4
-109 3 -137 -21z"/>
<path d="M7646 2169 l-26 -20 0 -515 0 -515 25 -24 c23 -23 31 -25 130 -25 99
0 107 2 130 25 l25 24 0 511 0 511 -25 24 c-22 23 -31 25 -128 25 -90 0 -108
-3 -131 -21z"/>
</g>
</svg>
